<?xml version="1.0" standalone="no"?>
<!DOCTYPE svg PUBLIC "-//W3C//DTD SVG 20010904//EN"
 "http://www.w3.org/TR/2001/REC-SVG-20010904/DTD/svg10.dtd">
<svg version="1.0" xmlns="http://www.w3.org/2000/svg"
 width="1622.000000pt" height="1622.000000pt" viewBox="0 0 1622.000000 1622.000000"
 preserveAspectRatio="xMidYMid meet">
<metadata>
Created by potrace 1.14, written by Peter Selinger 2001-2017
</metadata>
<g transform="translate(0.000000,1622.000000) scale(0.100000,-0.100000)"
fill="#000000" stroke="none">
<path d="M11755 14769 c-328 -48 -526 -147 -741 -371 -108 -113 -210 -257
-268 -378 -92 -196 -169 -389 -210 -530 -25 -85 -56 -185 -70 -222 -20 -52
-22 -69 -13 -77 17 -13 326 -138 647 -260 227 -87 598 -236 688 -277 18 -9 92
-39 165 -69 73 -29 200 -81 282 -115 83 -35 233 -95 335 -135 237 -93 385
-164 433 -209 21 -20 40 -36 43 -36 2 0 4 14 4 31 0 50 35 154 116 352 76 183
98 245 153 437 91 321 80 631 -34 952 -56 157 -187 359 -312 479 -211 205
-426 337 -648 399 -122 33 -431 49 -570 29z m615 -796 c80 -39 200 -163 224
-231 32 -92 21 -173 -37 -288 -88 -174 -332 -244 -517 -148 -81 42 -87 49
-130 144 -30 67 -33 85 -34 170 -1 89 1 100 33 165 55 110 142 184 256 216 51
14 145 1 205 -28z m-1357 -253 c-3 -12 -8 -19 -11 -16 -5 6 5 36 12 36 2 0 2
-9 -1 -20z m544 -356 c-3 -3 -12 -4 -19 -1 -8 3 -5 6 6 6 11 1 17 -2 13 -5z
m326 -21 c-7 -2 -21 -2 -30 0 -10 3 -4 5 12 5 17 0 24 -2 18 -5z m1134 -120
c-3 -10 -5 -2 -5 17 0 19 2 27 5 18 2 -10 2 -26 0 -35z m-20 -125 c-3 -7 -5
-2 -5 12 0 14 2 19 5 13 2 -7 2 -19 0 -25z"/>
<path d="M10158 12981 c-210 -67 -338 -253 -378 -547 -10 -76 -10 -102 4 -173
19 -100 73 -217 122 -266 47 -47 252 -146 474 -229 371 -138 697 -268 1070
-426 41 -17 131 -51 200 -75 220 -77 482 -172 593 -214 155 -59 271 -91 332
-91 119 0 262 72 343 171 93 115 150 289 137 419 -21 199 -81 390 -146 464
-48 55 -273 161 -528 248 -183 63 -503 182 -661 247 -80 32 -179 73 -220 89
-41 17 -145 56 -230 86 -85 30 -263 95 -395 144 -132 49 -276 101 -320 116
-173 58 -294 70 -397 37z m722 -203 c58 -25 86 -39 68 -34 -9 3 -32 8 -52 11
-19 4 -43 16 -53 28 -10 11 -13 18 -8 15 6 -3 26 -12 45 -20z m185 -68 c28
-10 84 -33 125 -50 41 -17 92 -38 113 -47 35 -14 42 -26 37 -66 -2 -26 -58
-105 -82 -118 -16 -9 -19 -8 -13 1 5 7 8 26 7 42 0 16 3 26 9 22 6 -3 9 2 7
12 -2 10 2 19 7 19 15 0 35 15 35 25 0 9 -39 25 -52 22 -3 -1 -12 6 -20 15 -9
12 -9 15 0 9 6 -4 12 -4 12 -1 0 3 -26 17 -57 31 -32 14 -67 29 -78 33 -11 5
-47 19 -80 32 -72 27 -69 25 -60 39 4 6 14 8 24 5 9 -4 39 -15 66 -25z"/>
<path d="M4998 12773 c12 -2 30 -2 40 0 9 3 -1 5 -23 4 -22 0 -30 -2 -17 -4z"/>
<path d="M5163 12303 c9 -2 23 -2 30 0 6 3 -1 5 -18 5 -16 0 -22 -2 -12 -5z"/>
<path d="M5808 12220 c-93 -28 -172 -112 -194 -208 -20 -84 -18 -175 4 -194
21 -19 117 -68 133 -68 7 0 102 -36 213 -80 111 -43 251 -97 311 -118 178 -64
441 -183 725 -329 146 -75 281 -146 300 -158 19 -12 68 -37 109 -54 58 -26 81
-31 109 -26 51 9 195 55 206 65 12 11 -339 358 -493 487 -207 173 -460 332
-727 458 -65 31 -140 67 -166 81 -109 58 -413 155 -478 153 -14 0 -37 -4 -52
-9z"/>
<path d="M10758 11387 c-102 -155 -117 -218 -79 -330 58 -166 145 -234 307
-239 67 -2 73 0 120 34 72 54 93 78 203 243 75 113 97 153 88 161 -15 14 -548
234 -565 234 -4 0 -37 -46 -74 -103z"/>
<path d="M11670 10830 c0 -6 12 -9 28 -9 63 4 82 -5 23 -10 -50 -5 -66 -10
-75 -26 -6 -11 -19 -32 -29 -47 -10 -16 -16 -28 -12 -28 3 0 -1 -10 -9 -22 -9
-12 -16 -35 -16 -50 0 -16 -5 -28 -11 -28 -6 0 -9 7 -5 15 3 8 4 15 2 15 -6 0
-178 -232 -174 -235 7 -7 98 87 98 101 0 7 6 14 13 14 19 0 47 33 48 56 1 14
3 13 8 -6 l7 -25 24 28 c30 34 38 34 32 -2 -2 -17 1 -32 10 -36 7 -5 10 -5 6
0 -4 4 0 14 10 22 10 9 11 12 2 7 -10 -5 -9 0 4 14 22 26 30 28 23 7 -4 -8 -2
-17 3 -20 4 -3 10 0 12 6 3 8 9 6 20 -4 8 -9 18 -14 20 -11 3 2 15 7 28 9 12
2 29 10 37 16 11 10 13 10 11 -1 -2 -7 8 -14 25 -17 17 -2 27 1 27 9 0 10 2
10 8 1 7 -11 45 -23 80 -25 6 -1 12 -12 12 -24 0 -39 17 -36 23 4 4 20 8 46
11 57 2 11 5 22 5 25 1 3 8 -8 16 -23 12 -24 13 -52 4 -184 -6 -85 -9 -157 -6
-159 11 -11 29 165 34 332 6 176 5 181 -16 201 -23 21 -92 36 -246 53 -112 12
-115 12 -115 0z m235 -249 c-3 -6 -11 -11 -17 -11 -6 0 -6 6 2 15 14 17 26 13
15 -4z m33 -6 c-3 -3 -9 2 -12 12 -6 14 -5 15 5 6 7 -7 10 -15 7 -18z"/>
<path d="M11366 10383 c-6 -14 -5 -15 5 -6 7 7 10 15 7 18 -3 3 -9 -2 -12 -12z"/>
<path d="M3709 10122 c-70 -45 -73 -59 -75 -340 l-1 -242 33 -30 c19 -16 46
-33 60 -36 14 -4 92 -1 173 6 494 41 1240 40 1941 -5 439 -28 555 -38 620 -54
l65 -16 0 186 0 187 -41 6 c-40 5 -89 19 -349 101 -408 128 -826 203 -1315
235 -85 5 -180 12 -210 15 -30 3 -235 7 -455 11 l-400 6 -46 -30z m2524 -538
c26 -3 50 -11 53 -15 3 -5 13 -9 23 -9 37 0 200 -74 189 -85 -2 -2 -75 20
-163 50 -88 30 -168 55 -180 55 -11 0 -27 5 -35 11 -16 11 5 9 113 -7z"/>
<path d="M9876 9583 c-24 -287 -127 -586 -266 -773 -136 -183 -265 -294 -446
-383 -171 -85 -204 -92 -414 -92 -201 1 -278 11 -433 56 -142 42 -289 115
-443 221 -142 96 -247 196 -342 327 -26 35 -57 75 -70 90 l-24 26 6 -49 c19
-163 205 -445 453 -687 262 -257 612 -435 1003 -512 218 -43 245 -47 306 -47
76 0 93 12 146 103 23 40 78 131 122 202 44 72 121 218 171 325 207 439 287
731 289 1055 0 178 -5 215 -33 215 -15 0 -19 -11 -25 -77z"/>
<path d="M10615 9217 c-152 -71 -216 -118 -308 -227 -103 -122 -137 -203 -186
-445 -47 -234 -95 -407 -193 -705 -107 -323 -201 -521 -360 -760 -202 -304
-365 -489 -596 -679 -105 -87 -60 -29 102 131 92 90 173 173 181 184 12 19 12
21 -3 20 -16 -1 -18 3 -21 45 0 11 -5 18 -10 15 -5 -3 -20 5 -34 18 -14 13
-50 31 -81 41 -42 13 -53 21 -49 34 4 12 3 13 -5 2 -14 -19 -85 6 -77 28 4 11
2 11 -8 3 -11 -9 -33 -2 -97 28 -61 30 -86 38 -95 30 -8 -6 -26 -13 -42 -15
-15 -2 -29 -4 -30 -5 -14 -9 -59 0 -67 13 -9 13 -6 20 12 32 21 15 31 45 14
45 -7 0 -41 -27 -142 -110 -86 -71 -249 -199 -294 -231 -27 -18 -67 -47 -90
-63 -119 -85 -332 -204 -450 -251 -88 -35 -389 -121 -494 -141 -45 -8 -114
-14 -152 -12 -75 3 -87 -4 -109 -64 -8 -24 -5 -32 30 -72 56 -64 154 -124 304
-188 134 -58 222 -88 331 -113 125 -29 542 -93 674 -104 74 -7 185 -16 246
-21 152 -14 256 -12 484 5 353 28 600 79 796 166 62 27 116 49 121 49 6 0 28
13 50 29 44 32 53 55 157 419 92 321 95 352 94 1122 -1 697 7 845 53 1103 34
191 114 360 224 476 65 68 162 141 228 169 33 14 36 42 5 42 -13 -1 -64 -20
-113 -43z m-1739 -2895 c-8 -9 -19 -13 -22 -9 -10 9 16 38 28 31 6 -4 4 -13
-6 -22z"/>
<path d="M3863 8833 c32 -2 81 -2 110 0 29 2 3 3 -58 3 -60 0 -84 -1 -52 -3z"/>
<path d="M3699 8810 c-10 -6 -49 -17 -88 -25 -39 -8 -79 -19 -88 -24 -10 -6
-47 -24 -83 -41 -36 -17 -74 -40 -85 -50 -11 -10 -47 -32 -80 -49 -155 -81
-308 -279 -373 -481 -50 -157 -57 -213 -57 -460 0 -208 3 -247 23 -340 30
-137 42 -170 102 -290 74 -147 114 -206 205 -297 208 -207 449 -299 884 -335
267 -22 701 23 993 101 431 117 722 227 1106 419 131 65 307 161 392 214 85
52 207 126 270 163 63 38 131 84 150 102 20 18 40 33 44 33 5 0 6 -19 2 -41
-4 -23 -16 -110 -27 -193 -23 -176 -35 -218 -99 -347 -62 -123 -81 -169 -70
-169 5 0 21 26 37 58 59 116 144 239 229 332 68 74 97 115 131 186 52 111 63
163 63 308 0 176 -43 343 -111 432 -36 47 -161 154 -180 154 -8 0 -21 -11 -27
-25 -10 -23 -8 -27 31 -54 23 -16 53 -41 67 -56 l25 -28 -53 29 c-30 16 -63
38 -75 49 l-22 20 -70 -68 c-82 -81 -235 -213 -320 -278 -76 -58 -163 -119
-170 -119 -3 0 -42 -23 -87 -51 -100 -63 -544 -289 -568 -289 -9 0 -45 -14
-79 -30 -64 -31 -84 -33 -61 -5 18 22 139 84 177 91 18 3 47 19 63 34 17 15
30 26 30 23 0 -2 13 5 29 16 15 11 31 18 34 15 9 -9 28 6 21 17 -3 6 -19 2
-39 -10 -29 -17 -35 -18 -46 -5 -7 9 -8 14 -1 14 6 0 12 -4 14 -9 2 -5 11 -3
22 4 16 12 16 16 5 28 -10 9 -36 12 -91 10 -61 -3 -78 -1 -78 10 0 9 -9 12
-30 9 -28 -4 -29 -6 -13 -17 15 -11 8 -13 -50 -12 -52 1 -66 4 -62 15 2 7 1
10 -4 7 -5 -3 -12 -1 -15 3 -5 8 -25 11 -126 15 -28 1 -51 9 -61 19 -9 10 -19
15 -22 12 -3 -3 -15 0 -27 6 -18 10 -21 9 -15 -1 6 -9 3 -11 -9 -6 -10 4 -27
7 -39 7 -22 1 -22 1 -2 12 11 6 22 15 25 19 3 5 31 19 62 33 71 32 239 124
258 142 12 12 12 14 -1 14 -8 0 -25 -9 -37 -21 -13 -11 -51 -29 -85 -41 -34
-11 -67 -24 -73 -29 -6 -5 -42 -22 -80 -38 -38 -15 -89 -38 -114 -49 -81 -38
-283 -110 -385 -137 -55 -14 -122 -33 -150 -40 -85 -25 -179 -40 -671 -112
-34 -5 -80 20 -144 77 l-34 31 81 78 c71 68 186 202 279 326 57 75 113 190
136 276 31 120 33 334 2 397 l-21 43 -11 -38 c-15 -50 -198 -294 -309 -410
-48 -51 -91 -93 -95 -93 -14 0 -9 14 15 40 55 62 136 160 175 213 43 57 41 77
-2 35 -31 -30 -50 -35 -37 -10 11 21 4 62 -11 62 -5 0 -7 4 -4 9 6 9 -37 53
-50 50 -21 -4 -28 2 -14 11 11 7 4 9 -22 7 -21 -2 -38 0 -38 5 0 12 -53 36
-90 40 -19 1 -44 11 -54 21 -11 9 -28 17 -38 17 -12 0 -16 4 -12 12 4 7 3 8
-4 4 -11 -6 -89 38 -104 59 -4 5 -10 7 -13 3 -3 -3 -17 4 -30 16 -22 20 -31
22 -77 15 -83 -11 -94 -18 -89 -56 3 -19 -19 -16 -26 3 -4 10 0 20 10 26 10 5
17 16 17 23 0 13 14 20 23 13 2 -2 30 23 63 55 61 61 107 87 153 87 15 0 36 7
47 15 10 8 26 15 35 15 8 0 24 7 35 15 19 14 19 14 -1 14 -11 0 -27 -4 -36 -9z
m-214 -220 c3 -5 1 -10 -4 -10 -6 0 -11 5 -11 10 0 6 2 10 4 10 3 0 8 -4 11
-10z m1742 -1047 c-2 -1 -14 1 -27 4 -22 6 -22 7 -4 13 15 6 40 -8 31 -17z
m26 -8 c-3 -9 -8 -14 -10 -11 -3 3 -2 9 2 15 9 16 15 13 8 -4z m67 -27 c0 -6
-6 -5 -15 2 -8 7 -15 14 -15 16 0 2 7 1 15 -2 8 -4 15 -11 15 -16z m28 -330
c-3 -14 -78 -37 -123 -38 -17 0 -37 -6 -44 -12 -11 -11 -13 -10 -9 2 3 9 36
24 84 37 96 26 95 26 92 11z"/>
<path d="M7350 8663 c0 -82 55 -230 161 -431 154 -292 237 -412 419 -602 99
-104 112 -123 87 -133 -6 -2 -97 -73 -202 -156 -104 -84 -224 -175 -265 -203
-41 -29 -126 -90 -189 -136 -137 -102 -269 -185 -371 -235 -76 -38 -180 -118
-180 -141 0 -15 64 -145 83 -168 17 -22 30 -22 88 -4 24 8 78 22 119 31 300
68 618 202 975 411 115 67 456 295 515 343 25 21 72 57 105 81 33 24 116 101
185 170 69 70 137 135 153 144 15 10 27 22 27 26 0 5 -46 10 -102 13 -147 6
-341 42 -488 89 -81 26 -338 169 -416 232 -187 148 -326 278 -461 431 -39 44
-110 120 -157 170 -67 69 -86 84 -86 68z"/>
<path d="M10361 7659 c-1 -53 -3 -138 -6 -190 -6 -114 -1 -107 25 36 29 160
31 171 24 157 -9 -19 -24 -4 -25 26 0 15 -4 36 -9 47 -6 13 -9 -13 -9 -76z"/>
<path d="M8920 6940 c0 -5 5 -10 11 -10 5 0 7 5 4 10 -3 6 -8 10 -11 10 -2 0
-4 -4 -4 -10z"/>
<path d="M7055 5697 c-47 -46 -71 -109 -60 -158 4 -16 26 -46 53 -69 88 -78
249 -137 472 -175 52 -9 147 -25 210 -36 118 -20 357 -48 580 -69 143 -13 900
-8 1040 8 181 20 443 55 560 74 75 12 157 42 184 66 27 25 56 87 56 120 0 42
-50 106 -105 132 l-47 23 -167 -17 c-91 -9 -198 -21 -236 -26 -39 -5 -215 -19
-390 -31 -373 -25 -640 -21 -955 12 -107 11 -235 24 -285 29 -191 18 -357 51
-579 114 -115 34 -176 46 -223 46 -64 0 -67 -1 -108 -43z"/>
<path d="M6806 5435 c-23 -62 191 -298 339 -373 109 -55 490 -144 680 -158 47
-4 88 -10 90 -15 5 -7 -236 -230 -327 -301 -60 -48 -341 -242 -513 -355 -139
-91 -252 -167 -485 -323 -178 -119 -488 -316 -514 -326 -76 -29 198 168 329
237 22 12 49 29 60 39 11 9 51 39 89 65 38 26 79 56 90 66 11 11 25 19 31 19
12 0 47 37 64 67 7 14 6 27 -4 46 -24 46 -42 67 -50 59 -4 -4 -6 3 -3 15 5 19
-17 54 -29 46 -14 -11 -23 0 -12 14 8 9 9 14 3 10 -6 -3 -41 3 -79 14 -37 12
-78 19 -91 16 -12 -2 -132 0 -266 5 -313 11 -292 11 -372 4 -41 -4 -74 -2 -81
4 -9 8 -14 6 -19 -5 -3 -8 -11 -15 -18 -15 -10 0 -10 2 -1 8 8 5 9 13 3 22 -8
12 -10 12 -10 1 0 -9 -8 -12 -25 -9 -13 3 -22 1 -19 -3 3 -5 -4 -9 -15 -9 -10
0 -21 3 -24 8 -2 4 -2 2 -1 -5 2 -6 -4 -14 -12 -17 -8 -3 -14 -1 -14 5 0 6 -4
8 -9 4 -5 -3 -12 -1 -15 4 -4 5 -2 12 4 16 6 4 7 12 3 18 -15 23 -12 46 5 59
10 7 27 27 38 43 24 38 65 84 129 147 100 98 125 123 125 129 0 16 -251 -227
-390 -376 -107 -115 -342 -393 -442 -522 -29 -37 -67 -86 -85 -108 -175 -218
-323 -403 -344 -431 -48 -61 -191 -208 -229 -234 -50 -34 -137 -108 -245 -210
-50 -47 -140 -127 -200 -178 -159 -135 -701 -677 -816 -815 -194 -231 -320
-414 -391 -563 -26 -57 -48 -106 -48 -110 0 -21 222 29 597 136 354 101 598
184 1013 346 444 173 1194 551 1583 798 71 44 157 99 192 121 66 41 124 79
380 250 195 131 496 349 611 445 50 41 126 102 170 135 43 33 132 107 198 165
281 247 278 244 344 235 82 -11 325 11 381 35 l49 21 103 -50 c186 -89 424
-161 669 -202 214 -36 581 -62 797 -57 l155 3 -7 -105 c-10 -149 -7 -533 5
-680 17 -193 74 -556 120 -755 37 -162 70 -327 70 -351 0 -33 10 -30 43 14 16
20 151 163 301 317 456 468 648 700 793 955 193 338 301 558 354 715 39 120
43 140 47 256 7 221 -37 354 -179 540 -85 110 -170 209 -181 209 -15 0 19 -54
52 -85 57 -53 182 -227 222 -310 25 -53 43 -109 52 -165 16 -96 29 -230 23
-230 -3 0 -44 16 -92 35 -117 47 -305 85 -548 110 -51 6 -60 10 -84 43 -82
111 -223 194 -398 237 -55 14 -110 25 -122 25 -24 0 -71 19 -89 35 -8 7 -8 15
0 27 8 14 5 22 -14 43 -16 17 -19 25 -9 25 10 1 9 5 -5 15 -10 8 -23 12 -27 9
-5 -3 -9 0 -9 6 0 6 -4 9 -9 6 -5 -3 -12 1 -15 10 -4 9 -9 14 -12 11 -3 -3
-21 5 -39 17 -33 23 -70 32 -245 61 -107 17 -597 26 -740 14 -47 -5 -98 -8
-115 -9 -57 -2 -194 8 -204 15 -11 6 -15 -1 -12 -18 1 -5 -3 -6 -9 -2 -6 4
-16 2 -23 -3 -13 -10 -18 -11 -86 -16 -25 -1 -47 -8 -49 -14 -2 -7 -10 -12
-18 -12 -8 0 -14 -4 -14 -9 0 -15 51 -43 71 -38 10 3 19 1 19 -5 0 -6 7 -8 15
-4 9 3 15 0 15 -8 0 -7 14 -16 30 -19 17 -4 30 -13 30 -21 0 -12 -6 -12 -32
-3 -18 7 -36 17 -40 23 -4 6 -18 9 -31 7 -31 -6 -129 42 -209 103 -68 52 -248
223 -278 265 l-19 26 47 -3 c155 -11 669 -15 807 -5 305 20 885 157 1025 243
45 27 32 32 -21 9 -186 -83 -668 -141 -1164 -141 -262 0 -323 3 -680 36 -307
29 -818 99 -978 133 -216 47 -362 143 -434 285 -16 32 -21 35 -27 21z m-1286
-1139 c0 -2 -7 -6 -15 -10 -8 -3 -15 -1 -15 4 0 6 7 10 15 10 8 0 15 -2 15 -4z
m-48 -48 c-7 -7 -12 -8 -12 -2 0 14 12 26 19 19 2 -3 -1 -11 -7 -17z m512
-717 c3 -4 -6 -13 -21 -20 -20 -9 -29 -9 -37 0 -8 9 -8 10 0 6 7 -4 17 0 24 8
14 17 26 19 34 6z"/>
<path d="M5255 5228 c-181 -15 -419 -85 -595 -173 -143 -72 -475 -313 -457
-332 4 -4 74 10 155 30 81 20 199 48 262 61 294 62 367 79 448 106 172 57 502
146 672 180 156 31 230 52 224 61 -3 5 -24 9 -47 9 -23 0 -60 5 -82 10 -140
34 -447 60 -580 48z"/>
<path d="M6075 4890 c-3 -6 1 -7 9 -4 18 7 21 14 7 14 -6 0 -13 -4 -16 -10z"/>
<path d="M5945 4779 c-22 -22 -33 -37 -25 -34 14 6 77 75 68 75 -2 0 -22 -18
-43 -41z"/>
<path d="M5155 4604 c-27 -13 -56 -24 -63 -24 -21 0 -419 -116 -514 -149 -145
-52 -495 -222 -598 -291 -14 -10 -65 -39 -115 -65 -49 -27 -102 -57 -117 -67
-15 -10 -46 -30 -70 -44 l-43 -25 55 5 c30 3 109 8 175 11 217 10 430 43 530
80 199 75 452 232 632 393 74 66 201 203 186 201 -4 0 -30 -11 -58 -25z"/>
<path d="M4405 3708 c-62 -50 -149 -94 -280 -142 -216 -80 -265 -102 -427
-190 -38 -20 -98 -52 -134 -71 -93 -50 -154 -95 -315 -231 -134 -113 -204
-183 -194 -192 6 -5 33 -17 60 -26 28 -10 85 -34 128 -54 63 -29 81 -33 100
-24 12 6 76 57 143 114 124 106 247 203 435 343 180 134 289 228 405 346 100
103 142 155 132 164 -2 2 -25 -15 -53 -37z"/>
</g>
</svg>
